# xmcd
#
# Track frame offsets: 
#        150
#        16595
#        28690
#        37494
#        54177
#        73702
#        90520
#        115864
#        133314
#        149506
#        159170
#        179107
#
# Disc length: 2642 seconds
#
# Revision: 0
# Processed by: cddbd v1.5.2PL0 Copyright (c) Steve Scherf et al.
# Submitted via: ExactAudioCopyFreeDBPlugin 1.0
#
DISCID=a70a500c
DTITLE=Cedric Burnside Project - Hear Me When I Say
DYEAR=2013
DGENRE=Blues
TTITLE0=Bloodstone
TTITLE1=Man Queen
TTITLE2='Til The Bury Me
TTITLE3=Wash My Hands
TTITLE4=I'll Do Anything For Your Love
TTITLE5=It's Your Life
TTITLE6=Gettin' Funky
TTITLE7=I Like It, I Love It
TTITLE8=Come On In
TTITLE9=I Don't Care What They Say
TTITLE10=We Did It
TTITLE11=Tight Tight
EXTD=
EXTT0=
EXTT1=
EXTT2=
EXTT3=
EXTT4=
EXTT5=
EXTT6=
EXTT7=
EXTT8=
EXTT9=
EXTT10=
EXTT11=
PLAYORDER=
